<svg width="340" height="98" viewBox="0 0 340 98" fill="none" xmlns="http://www.w3.org/2000/svg">
<path fill-rule="evenodd" clip-rule="evenodd" d="M112.52 10.3891H110.89V3.60906H114.27C116.54 3.60906 117.95 4.84906 117.95 6.84906C117.95 8.84906 115.08 10.3891 112.51 10.3891H112.52ZM119.6 17.0391C119.6 20.1391 117.72 21.9991 114.57 21.9991H110.89V12.3091H112.97C114.08 12.3091 119.6 12.5391 119.6 17.0491V17.0391ZM124.06 17.0391C124.06 13.6591 121.85 12.1191 120.55 11.4991C120.18 11.3191 119.8 11.1691 119.39 11.0391C119.5 10.9891 119.62 10.9291 119.73 10.8691C121.49 9.94906 122.42 8.49906 122.42 6.68906C122.42 5.47906 121.85 1.53906 114.58 1.53906H104.2V3.16906H106.06C106.32 3.16906 106.75 3.79906 106.75 4.29906V21.3091C106.75 21.7391 106.39 22.2191 106.06 22.2191H104.2V23.8491H115.03C121.69 23.8491 124.07 20.3391 124.07 17.0491L124.06 17.0391Z" fill="#25356F"/>
<path fill-rule="evenodd" clip-rule="evenodd" d="M158.15 22.2191H155.76V3.16906H158.15V1.53906H149.05V3.16906H150.91C151.3 3.16906 151.6 3.46906 151.6 3.85906V21.5191C151.6 21.9091 151.3 22.2091 150.91 22.2091H149.05V23.8391H158.15V22.2091V22.2191Z" fill="#25356F"/>
<path fill-rule="evenodd" clip-rule="evenodd" d="M161.67 6.78906C162.1 3.58906 163.51 3.16906 164.68 3.16906H166.92C167.18 3.16906 167.61 3.79906 167.61 4.29906V21.5191C167.61 21.9091 167.31 22.2091 166.92 22.2091H165.06V23.8391H174.16V22.2091H171.77V3.16906H174.7C175.87 3.16906 177.28 3.57906 177.71 6.78906L177.94 8.39906H179.55V1.53906H159.83V8.39906H161.44L161.67 6.77906V6.78906Z" fill="#25356F"/>
<path fill-rule="evenodd" clip-rule="evenodd" d="M190.33 22.2191H187.94V3.16906H190.33V1.53906H181.23V3.16906H183.09C183.48 3.16906 183.78 3.46906 183.78 3.85906V21.5191C183.78 21.9091 183.48 22.2091 183.09 22.2091H181.23V23.8391H190.33V22.2091V22.2191Z" fill="#25356F"/>
<path fill-rule="evenodd" clip-rule="evenodd" d="M194.81 23.3375C195.95 23.8375 197.88 24.4375 200.6 24.4375C206.82 24.4375 209.04 20.9275 209.04 17.6375C209.04 13.0775 204.99 11.2175 201.73 9.7175C199.23 8.5675 197.07 7.5775 197.07 5.7975C197.07 4.0175 198.42 3.0075 200.6 3.0075C202.93 3.0075 204.63 4.3575 205.27 6.7075L205.69 8.4075H207.09V3.0675L206.82 2.8675C206.34 2.5175 205.79 2.1875 205.18 1.8975C203.78 1.2575 202.24 0.9375 200.6 0.9375C196.42 0.9375 193.51 3.4275 193.51 6.9875C193.51 10.9775 197.19 12.7175 200.44 14.2575C203.15 15.5375 205.48 16.6475 205.48 18.6775C205.48 20.9175 203.57 22.3675 200.6 22.3675C197.27 22.3675 194.78 19.9675 194.29 17.6375L193.87 15.8075H192.46V22.0175L192.73 22.2175C193.33 22.6475 194.02 23.0275 194.81 23.3375Z" fill="#25356F"/>
<path fill-rule="evenodd" clip-rule="evenodd" d="M220.25 22.2191H217.86V12.7591H227.77V21.5291C227.77 21.9191 227.47 22.2191 227.08 22.2191H225.23V23.8491H234.33V22.2191H231.94V3.16906H234.33V1.53906H225.23V3.16906H227.08C227.41 3.16906 227.77 3.64906 227.77 4.07906V10.8291H217.86V3.16906H220.25V1.53906H211.15V3.16906H213.01C213.4 3.16906 213.7 3.46906 213.7 3.85906V21.5191C213.7 21.9091 213.4 22.2091 213.01 22.2091H211.15V23.8391H220.25V22.2091V22.2191Z" fill="#25356F"/>
<path fill-rule="evenodd" clip-rule="evenodd" d="M111.04 55.588H108.5V40.188L115.78 57.518H117.56L124.69 40.248V54.898C124.69 55.288 124.39 55.588 124 55.588H122.29V57.218H131.24V55.588H128.85V36.548H131.24V34.918H124.45L117.85 51.238L110.97 34.918H103.89V36.548H105.75C106.14 36.548 106.44 36.848 106.44 37.238V53.658C106.44 55.598 105.57 55.598 105.15 55.598H103.89V57.228H111.04V55.598V55.588Z" fill="#25356F"/>
<path fill-rule="evenodd" clip-rule="evenodd" d="M140.17 48.5588L143.12 40.4888L146.07 48.5588H140.17ZM146.8 57.2188H155.6V55.5887H154.19C153.24 55.5887 153 55.3888 152.56 54.2188L145.22 34.4688H142.96L135.92 53.7787C135.43 55.0987 134.94 55.5887 134.14 55.5887H132.58V57.2188H139.43V55.5887H137.75L139.49 50.4688H146.78L148.61 55.5887H146.79V57.2188H146.8Z" fill="#25356F"/>
<path fill-rule="evenodd" clip-rule="evenodd" d="M172.72 36.548H175.11V50.218L162.58 34.918H156.85V36.548H158.71C159.1 36.548 159.4 36.848 159.4 37.238V54.148C159.4 55.388 159.02 55.588 158.11 55.588H156.85V57.218H164V55.588H161.46V40.418L175.6 57.668H177.17V38.018C177.17 36.758 177.57 36.548 178.46 36.548H179.72V34.918H172.72V36.548Z" fill="#25356F"/>
<path fill-rule="evenodd" clip-rule="evenodd" d="M186.13 48.5588L189.08 40.4888L192.03 48.5588H186.13ZM178.55 57.2188H185.4V55.5887H183.72L185.46 50.4688H192.75L194.58 55.5887H192.76V57.2188H201.56V55.5887H200.15C199.33 55.5887 199.03 55.1587 198.52 53.7787L191.18 34.4688H188.92L181.88 54.2188C181.49 55.2687 181.07 55.5887 180.1 55.5887H178.54V57.2188H178.55Z" fill="#25356F"/>
<path fill-rule="evenodd" clip-rule="evenodd" d="M213.03 36.3903C216.16 36.3903 218.59 38.5803 219.12 40.6903L219.54 42.3903H221.16V37.2303L220.93 37.0303C220.32 36.5203 219.61 36.0603 218.82 35.6803C216.98 34.7803 215.03 34.3203 213.02 34.3203C206.61 34.3203 201.59 39.4803 201.59 46.0703C201.59 52.6603 206.61 57.8203 213.02 57.8203C216.07 57.8203 218.31 57.0203 219.66 56.3403C220.53 55.9103 221.29 55.4103 221.98 54.8103L222.21 54.6103V50.0403C222.21 49.6503 222.51 49.3503 222.9 49.3503H224.46V47.5003H216.08V49.3503H218.35V53.7503C218.06 54.0503 217.68 54.3403 217.2 54.6403C216.37 55.1403 214.97 55.7403 213.02 55.7403C209.66 55.7403 206.05 52.7103 206.05 46.0603C206.05 39.4103 209.66 36.3803 213.02 36.3803L213.03 36.3903Z" fill="#25356F"/>
<path fill-rule="evenodd" clip-rule="evenodd" d="M238.48 36.9897C240.28 36.9897 241.19 37.7697 241.49 39.5897L241.73 41.0397H243.33V34.9297H225.4V36.5597H227.26C227.65 36.5597 227.95 36.8597 227.95 37.2497V54.9097C227.95 55.2997 227.65 55.5997 227.26 55.5997H225.4V57.2297H244.08V51.1197H242.48L242.24 52.5697C241.93 54.3897 241.03 55.1697 239.22 55.1697H232.1V46.1497H236.92V48.8497H238.83V41.3897H236.92V42.7997C236.92 43.6297 236.32 44.2397 235.48 44.2397H232.1V37.0097H238.47L238.48 36.9897Z" fill="#25356F"/>
<path fill-rule="evenodd" clip-rule="evenodd" d="M252.92 55.588H250.38V40.188L257.66 57.518H259.44L266.57 40.248V54.898C266.57 55.288 266.27 55.588 265.88 55.588H264.17V57.218H273.12V55.588H270.73V36.548H273.12V34.918H266.33L259.73 51.238L252.85 34.918H245.77V36.548H247.62C248.01 36.548 248.31 36.848 248.31 37.238V53.658C248.31 55.598 247.44 55.598 247.02 55.598H245.77V57.228H252.92V55.598V55.588Z" fill="#25356F"/>
<path fill-rule="evenodd" clip-rule="evenodd" d="M293.47 51.1075H291.66L291.42 52.5575C291.1 54.4475 290.34 55.1575 288.63 55.1575H281.51V46.1375H286.55V48.8375H288.24V41.3775H286.54V42.7875C286.54 43.6475 285.68 44.2275 284.89 44.2275H281.51V36.9975H287.89C289.61 36.9975 290.36 37.6975 290.68 39.5975L290.92 41.0475H292.73V34.9375H274.8V36.5675H276.66C277.05 36.5675 277.35 36.8675 277.35 37.2575V54.9175C277.35 55.3075 277.05 55.6075 276.66 55.6075H274.8V57.2375H293.47V51.1275V51.1075Z" fill="#25356F"/>
<path fill-rule="evenodd" clip-rule="evenodd" d="M311.02 36.548H313.41V50.218L300.88 34.918H295.15V36.548H297C297.39 36.548 297.69 36.848 297.69 37.238V54.148C297.69 55.388 297.31 55.588 296.4 55.588H295.14V57.218H302.29V55.588H299.74V40.418L313.88 57.668H315.45V38.018C315.45 36.758 315.85 36.548 316.74 36.548H317.99V34.918H310.99V36.548H311.02Z" fill="#25356F"/>
<path fill-rule="evenodd" clip-rule="evenodd" d="M319.39 34.9202V41.7802H321.22L321.45 40.1602C321.86 37.1602 322.86 36.5402 324.24 36.5402H326.48C326.87 36.5402 327.17 36.8402 327.17 37.2302V54.8902C327.17 55.2802 326.87 55.5802 326.48 55.5802H324.62V57.2102H333.72V55.5802H331.33V36.5402H334.26C335.64 36.5402 336.64 37.1502 337.05 40.1602L337.28 41.7702H339.1V34.9102H319.38L319.39 34.9202Z" fill="#25356F"/>
<path fill-rule="evenodd" clip-rule="evenodd" d="M119.88 69.2706H122.42V81.7606C122.42 86.1506 120.22 88.4806 116.07 88.4806C112.68 88.4806 110.74 85.8606 110.74 81.2806V69.2706H113.13V67.6406H104.03V69.2706H105.89C106.28 69.2706 106.58 69.5706 106.58 69.9606V81.4606C106.58 86.8106 110.3 90.5406 115.62 90.5406C120.94 90.5406 124.49 86.9806 124.49 81.4606V71.1806C124.49 69.2706 125.39 69.2706 125.78 69.2706H127.19V67.6406H119.89V69.2706H119.88Z" fill="#25356F"/>
<path fill-rule="evenodd" clip-rule="evenodd" d="M144.42 69.2706H146.81V82.9406L134.28 67.6406H128.55V69.2706H130.41C130.8 69.2706 131.1 69.5706 131.1 69.9606V86.8706C131.1 88.1106 130.72 88.3106 129.81 88.3106H128.55V89.9406H135.7V88.3106H133.16V73.1406L147.3 90.3906H148.87V70.7406C148.87 69.4806 149.27 69.2706 150.16 69.2706H151.42V67.6406H144.42V69.2706Z" fill="#25356F"/>
<path fill-rule="evenodd" clip-rule="evenodd" d="M153.01 69.2706H154.87C155.26 69.2706 155.56 69.5706 155.56 69.9606V87.6206C155.56 88.0106 155.26 88.3106 154.87 88.3106H153.01V89.9406H162.11V88.3106H159.72V69.2706H162.11V67.6406H153.01V69.2706Z" fill="#25356F"/>
<path fill-rule="evenodd" clip-rule="evenodd" d="M180.01 69.2706H182.18L176.81 83.8606L170.93 69.2706H172.56V67.6406H163.76V69.2706H165.17C166.11 69.2706 166.45 69.5406 166.92 70.6606L174.9 90.3906H176.7L183.89 70.7906C184.29 69.7206 184.87 69.2706 185.82 69.2706H187.68V67.6406H180.02V69.2706H180.01Z" fill="#25356F"/>
<path fill-rule="evenodd" clip-rule="evenodd" d="M205.93 85.2684C205.61 87.1584 204.85 87.8684 203.14 87.8684H196.02V78.8484H200.84V81.5484H202.75V74.0884H200.84V75.4984C200.84 76.3284 200.24 76.9384 199.4 76.9384H196.02V69.7084H202.39C204.11 69.7084 204.86 70.4084 205.18 72.3084L205.42 73.7584H207.23V67.6484H189.3V69.2784H191.16C191.55 69.2784 191.85 69.5784 191.85 69.9684V87.6284C191.85 88.0184 191.55 88.3184 191.16 88.3184H189.3V89.9484H207.97V83.8384H206.16L205.92 85.2884L205.93 85.2684Z" fill="#25356F"/>
<path fill-rule="evenodd" clip-rule="evenodd" d="M242.11 75.8191C239.61 74.6691 237.45 73.6791 237.45 71.8991C237.45 70.1191 238.8 69.1091 240.98 69.1091C243.83 69.1091 244.98 71.1291 245.43 72.8091L245.86 74.5091H247.48V69.1691L247.21 68.9691C246.73 68.6191 246.18 68.2891 245.57 67.9991C244.17 67.3591 242.63 67.0391 240.99 67.0391C236.81 67.0391 233.9 69.5291 233.9 73.0891C233.9 77.0791 237.58 78.8191 240.83 80.3591C243.54 81.6391 245.87 82.7491 245.87 84.7791C245.87 87.0191 243.96 88.4691 240.99 88.4691C237.64 88.4691 235.39 86.0891 234.9 83.7391L234.48 81.9091H232.85V88.1191L233.12 88.3191C233.72 88.7491 234.42 89.1291 235.2 89.4391C236.34 89.9391 238.27 90.5391 240.99 90.5391C247.21 90.5391 249.43 87.0291 249.43 83.7391C249.43 79.1791 245.38 77.3191 242.12 75.8191H242.11Z" fill="#25356F"/>
<path fill-rule="evenodd" clip-rule="evenodd" d="M251.53 69.2706H253.38C253.77 69.2706 254.07 69.5706 254.07 69.9606V87.6206C254.07 88.0106 253.77 88.3106 253.38 88.3106H251.53V89.9406H260.63V88.3106H258.24V69.2706H260.63V67.6406H251.53V69.2706Z" fill="#25356F"/>
<path fill-rule="evenodd" clip-rule="evenodd" d="M262.32 74.4972H264.15L264.38 72.8772C264.74 70.1772 265.57 69.6972 267.17 69.6972H269.41C269.8 69.6972 270.1 69.9972 270.1 70.3872V87.6072C270.1 87.9972 269.8 88.2972 269.41 88.2972H267.56V89.9272H276.66V88.2972H274.26V69.6872H277.19C278.79 69.6872 279.61 70.1672 279.98 72.8672L280.21 74.4772H282.04V67.6172H262.32V74.4772V74.4972Z" fill="#25356F"/>
<path fill-rule="evenodd" clip-rule="evenodd" d="M298.26 69.2689H299.94L295.32 78.3989L290.57 69.2689H292.09V67.6389H283.29V69.2689H284.85C285.57 69.2689 286.05 69.4289 286.51 70.2589L292.27 81.3489V87.6189C292.27 88.0089 291.97 88.3089 291.58 88.3089H289.72V89.9389H298.82V88.3089H296.43V80.8889L301.74 70.4089C302.28 69.3689 302.66 69.2589 303.4 69.2589H305.11V67.6289H298.26V69.2589V69.2689Z" fill="#25356F"/>
<path fill-rule="evenodd" clip-rule="evenodd" d="M132.54 11.5698V3.22984H135.32C138.49 3.22984 138.73 6.24984 138.73 7.17984C138.73 7.40984 138.74 7.63984 138.75 7.86984C138.82 9.37984 138.88 10.5798 135.66 11.5698H132.54ZM135.08 22.2698H132.54V13.2598H133.02C133.35 13.2598 133.49 13.3298 133.53 13.3498L139.23 21.4898L140.85 23.8898H146.12L141.3 17.3398L138.6 13.3598C142.03 12.9598 143.2 11.4098 143.2 7.82984C143.2 3.27984 141.19 1.58984 135.78 1.58984H125.84V3.21984H127.69C128.08 3.21984 128.38 3.51984 128.38 3.90984V21.3498C128.38 21.7798 128.02 22.2598 127.69 22.2598H125.84V23.8898H135.09V22.2598L135.08 22.2698Z" fill="#25356F"/>
<path fill-rule="evenodd" clip-rule="evenodd" d="M217.45 69.2784H220.23C221.41 69.2784 222.31 69.6984 222.89 70.5284C223.37 71.2184 223.64 72.1684 223.64 73.2284C223.64 73.4684 223.65 73.7184 223.66 73.8984V73.9684C223.67 74.1784 223.68 74.3884 223.68 74.5784C223.68 75.0384 223.62 75.3784 223.5 75.6784C223.16 76.4784 222.2 77.1184 220.57 77.6184H217.45V69.2784ZM223.51 79.4184C224.92 79.2484 225.92 78.8884 226.64 78.2884C227.67 77.4184 228.11 76.1084 228.11 73.8884C228.11 71.5384 227.6 70.0584 226.46 69.0784C225.31 68.0884 223.53 67.6484 220.68 67.6484H210.75V69.2784H212.61C213 69.2784 213.3 69.5784 213.3 69.9684V87.4084C213.3 87.6284 213.21 87.8684 213.06 88.0584C212.93 88.2284 212.76 88.3184 212.62 88.3184H210.76V89.9484H220.01V88.3184H217.47V79.3084H217.95C218.27 79.3084 218.41 79.3684 218.46 79.3884L224.16 87.5384L225.59 89.6484L225.78 89.9384H231.05L226.23 83.3884L223.53 79.4084L223.51 79.4184Z" fill="#25356F"/>
<path fill-rule="evenodd" clip-rule="evenodd" d="M85.9902 65.6888C86.2902 70.1888 83.6602 74.2787 80.7302 77.4487C75.5302 83.0587 67.7302 87.7787 60.8802 91.1687C57.0002 93.0887 48.2302 97.0687 43.9202 97.0687C41.1102 97.0687 36.6702 95.5888 34.0202 94.6488C29.1602 92.9287 24.3402 90.7487 19.8302 88.2588C15.1702 85.6787 10.4302 82.5287 6.69019 78.7087C3.28019 75.2287 0.410156 70.8288 0.410156 65.7988V0.71875H85.9802V65.6888H85.9902Z" fill="#25356F"/>
<path fill-rule="evenodd" clip-rule="evenodd" d="M3.4903 65.7884C3.4903 74.3884 14.6603 81.8584 21.3203 85.5484C30.7503 90.7684 40.8403 93.9784 43.9103 93.9784C48.7603 93.9784 69.4103 85.1184 78.4603 75.3484C81.6303 71.9284 83.1203 68.7084 82.9003 65.7984V3.58844H3.4903V65.7884ZM43.9103 94.4184C40.7903 94.4184 30.6003 91.1884 21.1003 85.9284C15.8303 83.0084 11.6203 79.9584 8.57031 76.8384C4.91031 73.0984 3.05029 69.3784 3.05029 65.7784V3.14844H83.3403V65.7884C83.5703 68.8084 82.0403 72.1384 78.7803 75.6584C73.2803 81.5984 64.4603 86.4384 59.7003 88.7984C53.1203 92.0584 46.4803 94.4184 43.9103 94.4184Z" fill="white"/>
<path fill-rule="evenodd" clip-rule="evenodd" d="M20.0303 23.1991H22.9203C25.0403 23.1991 26.6103 24.3191 27.5903 26.5191C28.5103 28.6091 28.5403 30.8991 28.5403 31.1491C28.5403 31.5791 28.5003 33.8091 27.6803 35.9191C27.2403 37.0591 26.6503 37.9591 25.9203 38.5991C25.0403 39.3691 23.9503 39.7591 22.6803 39.7591H20.0303V23.1891V23.1991ZM26.0403 20.3991C25.7103 21.0091 25.2603 21.4591 24.6803 21.7791C24.0303 22.1291 23.2003 22.3091 22.2003 22.3091H20.0303V10.1591H22.2003C23.1703 10.1591 24.0003 10.3791 24.6603 10.8191C25.2303 11.1891 25.6903 11.7291 26.0303 12.4091C26.6503 13.6391 26.7803 15.1091 26.7803 16.1291C26.7803 17.5591 26.6903 19.1891 26.0303 20.4091L26.0403 20.3991ZM34.9103 26.4891C34.2003 25.3391 33.1703 24.4691 31.8303 23.8891C30.4903 23.2891 28.9803 22.8991 27.3403 22.7291C28.4803 22.4691 29.5203 22.1091 30.5003 21.6391C33.0503 20.3991 34.3403 18.5491 34.3403 16.1391C34.3403 14.1791 33.3803 12.5091 31.5803 11.3191C29.5403 9.97906 26.5503 9.28906 22.6803 9.28906H9.32031V10.1791H11.4503C12.5103 10.1791 13.3803 10.9691 13.3803 11.9491V38.0191C13.3803 38.9991 12.5203 39.7891 11.4503 39.7891H9.32031V40.6791H23.3903C27.7103 40.6791 31.0003 39.7791 33.1703 38.0091C35.1103 36.4191 36.0903 34.1991 36.0903 31.3991C36.0903 29.4291 35.6903 27.7891 34.9003 26.5091L34.9103 26.4891Z" fill="white"/>
<path fill-rule="evenodd" clip-rule="evenodd" d="M52.6501 23.3684C52.7501 23.2784 52.8901 23.1884 53.0601 23.0884L53.4401 22.8784C53.7901 22.6784 54.03 22.5184 54.17 22.3784C54.42 22.1284 54.54 21.8184 54.54 21.4684C54.54 21.1384 54.4201 20.8284 54.2001 20.5584C53.9701 20.2884 53.6 20.1484 53.11 20.1484C52.52 20.1484 52.1 20.3684 51.86 20.7884C51.73 21.0284 51.6601 21.3284 51.6501 21.6984V21.8084H52.3801V21.6984C52.3901 21.4684 52.4301 21.2884 52.4901 21.1584C52.6001 20.9284 52.81 20.8284 53.11 20.8284C53.31 20.8284 53.4701 20.8884 53.5901 21.0084C53.7101 21.1284 53.7701 21.2784 53.7701 21.4884C53.7701 21.6584 53.7101 21.8084 53.5701 21.9484C53.4801 22.0384 53.3201 22.1584 53.0901 22.2884L52.55 22.5984C52.17 22.8184 51.9101 23.0684 51.7801 23.3484C51.6501 23.6184 51.5801 23.9384 51.5601 24.2984V24.4184H54.5301V23.7184H52.3801C52.4401 23.5884 52.5301 23.4784 52.6501 23.3684Z" fill="white"/>
<path fill-rule="evenodd" clip-rule="evenodd" d="M56.81 21.2102C56.92 21.4902 56.97 21.8602 56.97 22.3002C56.97 22.9102 56.9 23.3302 56.76 23.5402C56.63 23.7402 56.45 23.8402 56.23 23.8402C55.95 23.8402 55.76 23.6802 55.64 23.3402C55.56 23.1002 55.51 22.7802 55.51 22.3802C55.51 21.8502 55.58 21.4502 55.7 21.1902C55.82 20.9502 56 20.8302 56.25 20.8302C56.53 20.8302 56.7 20.9502 56.8 21.2102H56.81ZM56.23 20.1602C55.6 20.1602 55.17 20.4902 54.93 21.1502C54.81 21.4902 54.75 21.9002 54.75 22.3702C54.75 22.9802 54.85 23.4702 55.06 23.8402C55.31 24.3002 55.71 24.5302 56.23 24.5302C56.81 24.5302 57.23 24.2502 57.48 23.6902C57.65 23.3202 57.73 22.8402 57.73 22.2802C57.73 21.6902 57.64 21.2102 57.45 20.8602C57.2 20.3902 56.79 20.1602 56.23 20.1602Z" fill="white"/>
<path fill-rule="evenodd" clip-rule="evenodd" d="M78.2803 36.8192L77.9702 36.6792C74.0302 34.8792 69.7102 34.2392 65.4902 34.8092L65.3903 34.3892C67.3203 33.6892 69.3302 33.3492 71.3602 33.3892C72.8102 33.3892 74.2703 33.5292 75.7103 33.7692C75.8203 33.7892 75.9303 33.7692 76.0203 33.6892C76.1303 33.6092 76.2102 33.4692 76.2302 33.3192C76.2302 33.2892 76.2302 33.2592 76.2302 33.2292V13.8392H78.3102L78.2803 36.8392V36.8192ZM62.2103 34.9392L62.5602 34.6892C64.0802 33.5892 66.8502 32.2892 71.3502 32.2892C72.5802 32.2892 73.8103 32.3892 75.0303 32.5592L75.2803 32.5992V12.0492L75.1102 12.0092C73.7602 11.6692 72.3702 11.4992 70.9902 11.4992C68.4102 11.4992 64.8003 12.1592 62.2603 15.3292L62.2103 15.3892V34.9392ZM60.9302 34.6992C59.4302 33.5992 56.6803 32.2992 52.1403 32.2992C50.9103 32.2992 49.6602 32.3892 48.4402 32.5692L48.1902 32.5992V12.0592L48.3502 12.0192C49.7002 11.6792 51.0902 11.5092 52.4702 11.5092C55.0702 11.5092 58.6903 12.1692 61.2003 15.3392L61.2502 15.3992L61.2703 34.9592L60.9202 34.7092L60.9302 34.6992ZM57.9702 34.8092L58.0703 34.3892C56.1503 33.6892 54.1502 33.3492 52.1302 33.3892C50.6902 33.3992 49.2302 33.5292 47.8102 33.7692C47.7902 33.7692 47.7602 33.7692 47.7402 33.7692C47.4802 33.7692 47.2703 33.5192 47.2803 33.2192V13.8192H45.2003V36.8192L45.5103 36.6792C49.4403 34.8892 53.7502 34.2392 57.9702 34.8092ZM78.7603 12.7392H76.2103V11.6292C76.2203 11.3692 76.0802 11.1392 75.8702 11.0692C74.2802 10.6092 72.6302 10.3692 70.9902 10.3792C68.3502 10.3792 64.6402 11.0292 61.9102 14.1292L61.7402 14.3192L61.5803 14.1292C58.9003 11.0292 55.1602 10.3792 52.5002 10.3792C50.8502 10.3792 49.2102 10.6092 47.6202 11.0792C47.4102 11.1492 47.2703 11.3692 47.2803 11.6292V12.7392H44.7502C44.4902 12.7392 44.2803 12.9892 44.2803 13.2892V37.7092C44.2803 38.0092 44.4902 38.2592 44.7502 38.2592C44.8202 38.2592 44.9002 38.2392 44.9702 38.1892C45.7202 37.7492 52.4002 34.0492 61.6202 36.6292H61.7803C61.7803 36.6292 61.8402 36.6292 61.8702 36.6292C66.8802 35.2192 71.1302 35.6992 73.8002 36.3492C76.3802 36.9792 78.1503 37.9092 78.5303 38.1892C78.6703 38.2792 78.8402 38.2792 78.9802 38.1892C79.1302 38.0992 79.2202 37.9092 79.2202 37.7192V13.2992C79.2202 12.9992 79.0102 12.7592 78.7502 12.7592L78.7603 12.7392Z" fill="white"/>
<path fill-rule="evenodd" clip-rule="evenodd" d="M46.3103 61.6101C45.7303 59.5001 44.8103 57.5001 44.8503 55.5301C44.9303 50.2901 49.3503 46.2501 55.5103 47.4801C55.8003 47.5401 56.0203 47.9201 56.3203 48.4001C53.6703 50.3501 54.2504 53.4501 54.6504 54.4501C54.9304 55.1601 57.5003 58.4501 59.4803 60.9401C60.6003 62.8901 61.2404 65.1301 60.7804 67.7901C60.7504 67.9601 60.5203 68.9901 60.3103 69.1901C60.3103 69.1901 60.3003 69.2001 60.2903 69.2101L59.3903 70.2401L57.1703 68.9801H57.2603L46.3003 61.6101H46.3103ZM56.8603 49.1001C55.7703 49.9101 54.2403 52.1201 55.8603 54.7801C56.8203 56.3501 57.6503 57.4301 58.3303 58.1301C59.1703 57.9701 60.0404 57.8701 60.2804 57.4301C60.8504 56.0901 61.2603 54.6901 61.5003 53.2601C59.6203 52.0501 59.1303 49.2301 56.8703 49.0901L56.8603 49.1001ZM56.2303 68.9501L45.7003 61.9301C39.4803 61.9301 33.0403 62.0101 26.6003 61.9601C25.6603 61.9601 24.7503 61.6301 24.0103 61.0501C23.2703 60.4701 22.7504 59.6601 22.5304 58.7601C22.2804 57.9901 22.3103 57.1501 22.6003 56.4001C22.8903 55.6401 23.4203 55.0001 24.1203 54.5801C24.9703 53.9701 25.9803 53.6301 27.0203 53.5901C28.0703 53.5501 29.1003 53.8201 29.9903 54.3601C31.9703 55.5701 33.6203 57.3401 35.4903 58.7301C36.5303 59.5901 37.8603 60.0201 39.2104 59.9501C40.5604 59.8801 41.8404 59.3101 42.7804 58.3501C43.0704 57.9901 42.9903 57.2801 43.0703 56.7401C42.4903 56.7401 41.7803 56.4901 41.3603 56.7401C40.5503 57.4001 39.5103 57.7301 38.4604 57.6501C37.4104 57.5701 36.4303 57.0901 35.7403 56.3101C34.2103 54.9301 32.6003 53.6401 30.9203 52.4401C29.2503 51.5001 27.2804 51.2201 25.4004 51.6601C23.5304 52.1001 21.9004 53.2301 20.8404 54.8201C20.0604 56.2601 19.8803 57.9501 20.3603 59.5101C20.8303 61.0701 21.9203 62.3901 23.3703 63.1601C24.3503 63.6701 24.4003 64.0901 23.7503 65.0601C23.2403 65.9901 22.4503 66.7301 21.4803 67.1801C20.5103 67.6201 19.4203 67.7401 18.3803 67.5301C17.8203 67.4801 17.2503 67.4801 16.6903 67.5301C14.9603 67.5401 14.7204 68.0201 15.2804 69.6401C15.8404 71.2701 16.3503 72.9101 17.0103 74.4901C18.9503 79.0901 17.0103 78.7601 22.6303 78.7601C24.0403 78.7701 24.6703 78.4001 24.6703 76.9001C24.6403 74.9101 24.3603 74.4501 22.6703 74.3301L20.5503 74.1901C20.857 72.9967 21.4803 72.4001 22.4203 72.4001H27.8203C29.5703 72.4701 31.2903 71.9601 32.7203 70.9501C34.1503 69.9401 35.1903 68.4901 35.6903 66.8301C35.8303 66.4501 36.4203 66.1301 36.8203 65.8101L40.0203 67.1301H40.0103C42.6403 68.0101 45.2703 68.8501 47.8803 69.7701C49.9303 70.4901 51.9603 71.4701 52.6003 73.6801C52.7703 74.4401 53.1803 75.1401 53.7703 75.6601C54.3603 76.1801 55.1003 76.5101 55.8903 76.6001C59.4903 77.3401 62.8603 79.1301 66.6903 78.8401C68.7103 78.7001 69.7003 77.2001 68.4803 75.6301C67.7503 74.9901 66.8403 74.5701 65.8803 74.4301C64.9503 74.1901 63.7903 74.5301 63.0703 74.0701C60.7103 72.4801 58.4604 70.7501 56.2104 68.9801L56.2303 68.9501ZM39.1603 67.3001C38.4603 67.0601 37.1803 66.6101 36.8303 66.4901C36.8303 67.3201 36.8203 67.9201 36.8203 68.4901C36.9603 69.2901 37.0103 70.1101 36.9903 70.9201C36.7703 72.2001 35.6803 73.6201 36.1203 74.5901C36.5603 75.5601 38.2603 76.0101 39.4703 76.5801C41.4903 77.5101 43.2703 78.9301 45.7104 78.7401C47.0904 78.6301 47.7803 78.2501 47.7903 76.8101C47.8003 75.3601 47.4103 74.4201 45.8203 74.2901H44.4103C43.5003 74.2901 43.1003 73.8901 43.5003 72.9001C44.3203 70.7701 43.7003 69.4401 41.6003 68.4901C40.8603 68.2201 40.1403 67.8201 39.1603 67.3001ZM61.4803 67.7401C61.4803 66.5301 61.5603 65.3101 61.4803 64.1101C61.3803 63.5401 61.4503 62.9501 61.6803 62.4201C61.9203 61.8901 62.3103 61.4401 62.8003 61.1201C63.7003 60.6601 64.4304 59.9401 64.9004 59.0501C65.3704 58.1601 65.5503 57.1601 65.4303 56.1701C65.4303 55.8501 65.4803 55.5301 65.6103 55.2301C65.7403 54.9301 65.9303 54.6701 66.1803 54.4501C66.4203 54.2401 66.7104 54.0801 67.0304 53.9801C67.3504 53.8801 67.6703 53.8601 68.0003 53.9101C69.6003 54.0101 69.4103 55.2001 69.4103 56.2301C69.5303 57.3101 69.4303 58.3901 69.1203 59.4301C68.8103 60.4701 68.2903 61.4301 67.6003 62.2701C66.1903 64.1301 65.0103 66.1501 63.7503 68.1101C63.6303 68.4201 63.4403 68.6901 63.1903 68.9101C62.9503 69.1301 62.6503 69.2901 62.3303 69.3801C62.0403 69.4601 61.7403 69.4801 61.4503 69.4401L61.4903 67.7301L61.4803 67.7401Z" fill="white"/>
<path fill-rule="evenodd" clip-rule="evenodd" d="M66.6501 23.3684C66.7501 23.2784 66.8901 23.1884 67.0601 23.0884L67.4401 22.8784C67.7901 22.6784 68.03 22.5184 68.17 22.3784C68.42 22.1284 68.54 21.8184 68.54 21.4684C68.54 21.1384 68.4201 20.8284 68.2001 20.5584C67.9701 20.2884 67.6 20.1484 67.11 20.1484C66.52 20.1484 66.1 20.3684 65.86 20.7884C65.73 21.0284 65.6601 21.3284 65.6501 21.6984V21.8084H66.3801V21.6984C66.3901 21.4684 66.4301 21.2884 66.4901 21.1584C66.6001 20.9284 66.81 20.8284 67.11 20.8284C67.31 20.8284 67.4701 20.8884 67.5901 21.0084C67.7101 21.1284 67.7701 21.2784 67.7701 21.4884C67.7701 21.6584 67.7101 21.8084 67.5701 21.9484C67.4801 22.0384 67.3201 22.1584 67.0901 22.2884L66.55 22.5984C66.17 22.8184 65.9101 23.0684 65.7801 23.3484C65.6501 23.6184 65.5801 23.9384 65.5601 24.2984V24.4184H68.5301V23.7184H66.3801C66.4401 23.5884 66.5301 23.4784 66.6501 23.3684Z" fill="white"/>
<path fill-rule="evenodd" clip-rule="evenodd" d="M70.8002 21.2102C70.9102 21.4902 70.9603 21.8602 70.9603 22.3002C70.9603 22.9102 70.8902 23.3302 70.7502 23.5402C70.6202 23.7402 70.4402 23.8402 70.2202 23.8402C69.9402 23.8402 69.7502 23.6802 69.6302 23.3402C69.5502 23.1002 69.5002 22.7802 69.5002 22.3802C69.5002 21.8502 69.5702 21.4502 69.6902 21.1902C69.8102 20.9502 69.9902 20.8302 70.2402 20.8302C70.5202 20.8302 70.6902 20.9502 70.7902 21.2102H70.8002ZM70.2202 20.1602C69.5902 20.1602 69.1602 20.4902 68.9202 21.1502C68.8002 21.4902 68.7402 21.9002 68.7402 22.3702C68.7402 22.9802 68.8402 23.4702 69.0502 23.8402C69.3002 24.3002 69.7002 24.5302 70.2202 24.5302C70.8002 24.5302 71.2202 24.2502 71.4702 23.6902C71.6402 23.3202 71.7202 22.8402 71.7202 22.2802C71.7202 21.6902 71.6302 21.2102 71.4402 20.8602C71.1902 20.3902 70.7802 20.1602 70.2202 20.1602Z" fill="white"/>
</svg>
