<svg width="340" height="97" viewBox="0 0 340 97" fill="none" xmlns="http://www.w3.org/2000/svg">
<path fill-rule="evenodd" clip-rule="evenodd" d="M86.1601 64.97C86.4601 69.47 83.8301 73.56 80.9001 76.73C75.7001 82.34 67.9001 87.06 61.0501 90.45C57.1701 92.37 48.4001 96.35 44.0901 96.35C41.2801 96.35 36.8401 94.87 34.1901 93.93C29.3301 92.21 24.5101 90.03 20.0001 87.54C15.3401 84.96 10.6001 81.81 6.86008 77.99C3.45008 74.51 0.580078 70.11 0.580078 65.08V0H86.1501V64.97H86.1601Z" fill="white"/>
<path fill-rule="evenodd" clip-rule="evenodd" d="M3.66022 65.0697C3.66022 73.6697 14.8302 81.1397 21.4902 84.8297C30.9202 90.0497 41.0102 93.2597 44.0802 93.2597C48.9302 93.2597 69.5802 84.3997 78.6302 74.6297C81.8002 71.2097 83.2902 67.9897 83.0702 65.0797V2.86969H3.66022V65.0697ZM44.0802 93.6997C40.9602 93.6997 30.7702 90.4697 21.2702 85.2097C16.0002 82.2897 11.7902 79.2397 8.7402 76.1197C5.0802 72.3797 3.22021 68.6597 3.22021 65.0597V2.42969H83.5102V65.0697C83.7402 68.0897 82.2102 71.4197 78.9502 74.9397C73.4502 80.8797 64.6302 85.7197 59.8702 88.0797C53.2902 91.3397 46.6502 93.6997 44.0802 93.6997Z" fill="#25356F"/>
<path fill-rule="evenodd" clip-rule="evenodd" d="M20.2003 22.4803H23.0902C25.2102 22.4803 26.7803 23.6003 27.7603 25.8003C28.6803 27.8903 28.7102 30.1803 28.7102 30.4303C28.7102 30.8603 28.6702 33.0903 27.8503 35.2003C27.4102 36.3403 26.8202 37.2403 26.0902 37.8803C25.2102 38.6503 24.1203 39.0403 22.8503 39.0403H20.2003V22.4703V22.4803ZM26.2102 19.6803C25.8802 20.2903 25.4303 20.7403 24.8503 21.0603C24.2003 21.4103 23.3702 21.5903 22.3702 21.5903H20.2003V9.44031H22.3702C23.3402 9.44031 24.1702 9.66031 24.8302 10.1003C25.4002 10.4703 25.8603 11.0103 26.2003 11.6903C26.8203 12.9203 26.9503 14.3903 26.9503 15.4103C26.9503 16.8403 26.8603 18.4703 26.2003 19.6903L26.2102 19.6803ZM35.0802 25.7703C34.3702 24.6203 33.3402 23.7503 32.0002 23.1703C30.6602 22.5703 29.1503 22.1803 27.5103 22.0103C28.6503 21.7503 29.6903 21.3903 30.6703 20.9203C33.2203 19.6803 34.5103 17.8303 34.5103 15.4203C34.5103 13.4603 33.5502 11.7903 31.7502 10.6003C29.7102 9.26031 26.7202 8.57031 22.8503 8.57031H9.49023V9.46031H11.6202C12.6802 9.46031 13.5502 10.2503 13.5502 11.2303V37.3003C13.5502 38.2803 12.6902 39.0703 11.6202 39.0703H9.49023V39.9603H23.5602C27.8802 39.9603 31.1702 39.0603 33.3402 37.2903C35.2802 35.7003 36.2603 33.4803 36.2603 30.6803C36.2603 28.7103 35.8603 27.0703 35.0703 25.7903L35.0802 25.7703Z" fill="#25356F"/>
<path fill-rule="evenodd" clip-rule="evenodd" d="M52.8302 22.6497C52.9302 22.5597 53.0702 22.4697 53.2402 22.3697L53.6202 22.1597C53.9702 21.9597 54.2103 21.7997 54.3503 21.6597C54.6003 21.4097 54.7202 21.0997 54.7202 20.7497C54.7202 20.4197 54.6002 20.1097 54.3802 19.8397C54.1502 19.5697 53.7803 19.4297 53.2903 19.4297C52.7003 19.4297 52.2803 19.6497 52.0403 20.0697C51.9103 20.3097 51.8402 20.6097 51.8302 20.9797V21.0897H52.5602V20.9797C52.5702 20.7497 52.6103 20.5697 52.6703 20.4397C52.7803 20.2097 52.9903 20.1097 53.2903 20.1097C53.4903 20.1097 53.6502 20.1697 53.7702 20.2897C53.8902 20.4097 53.9503 20.5597 53.9503 20.7697C53.9503 20.9397 53.8902 21.0897 53.7502 21.2297C53.6602 21.3197 53.5002 21.4397 53.2702 21.5697L52.7303 21.8797C52.3503 22.0997 52.0902 22.3497 51.9602 22.6297C51.8302 22.8997 51.7602 23.2197 51.7402 23.5797V23.6997H54.7102V22.9997H52.5602C52.6202 22.8697 52.7102 22.7597 52.8302 22.6497Z" fill="#25356F"/>
<path fill-rule="evenodd" clip-rule="evenodd" d="M56.9799 20.4914C57.0899 20.7714 57.1399 21.1414 57.1399 21.5814C57.1399 22.1914 57.0699 22.6114 56.9299 22.8214C56.7999 23.0214 56.6199 23.1214 56.3999 23.1214C56.1199 23.1214 55.9299 22.9614 55.8099 22.6214C55.7299 22.3814 55.6799 22.0614 55.6799 21.6614C55.6799 21.1314 55.7499 20.7314 55.8699 20.4714C55.9899 20.2314 56.1699 20.1114 56.4199 20.1114C56.6999 20.1114 56.8699 20.2314 56.9699 20.4914H56.9799ZM56.3999 19.4414C55.7699 19.4414 55.3399 19.7714 55.0999 20.4314C54.9799 20.7714 54.9199 21.1814 54.9199 21.6514C54.9199 22.2614 55.0199 22.7514 55.2299 23.1214C55.4799 23.5814 55.8799 23.8114 56.3999 23.8114C56.9799 23.8114 57.3999 23.5314 57.6499 22.9714C57.8199 22.6014 57.8999 22.1214 57.8999 21.5614C57.8999 20.9714 57.8099 20.4914 57.6199 20.1414C57.3699 19.6714 56.9599 19.4414 56.3999 19.4414Z" fill="#25356F"/>
<path fill-rule="evenodd" clip-rule="evenodd" d="M78.4502 36.1005L78.1402 35.9605C74.2002 34.1605 69.8802 33.5205 65.6602 34.0905L65.5602 33.6705C67.4902 32.9705 69.5002 32.6305 71.5302 32.6705C72.9802 32.6705 74.4402 32.8105 75.8802 33.0505C75.9902 33.0705 76.1002 33.0505 76.1902 32.9705C76.3002 32.8905 76.3802 32.7505 76.4002 32.6005C76.4002 32.5705 76.4002 32.5405 76.4002 32.5105V13.1105H78.4802L78.4502 36.1105V36.1005ZM62.3802 34.2205L62.7302 33.9705C64.2502 32.8705 67.0202 31.5705 71.5202 31.5705C72.7502 31.5705 73.9802 31.6705 75.2002 31.8405L75.4502 31.8805V11.3405L75.2802 11.3005C73.9302 10.9605 72.5402 10.7905 71.1602 10.7905C68.5802 10.7905 64.9702 11.4505 62.4302 14.6205L62.3802 14.6805V34.2305V34.2205ZM61.1002 33.9805C59.6002 32.8805 56.8502 31.5805 52.3102 31.5805C51.0802 31.5805 49.8302 31.6705 48.6102 31.8505L48.3602 31.8805V11.3405L48.5202 11.3005C49.8702 10.9605 51.2602 10.7905 52.6402 10.7905C55.2402 10.7905 58.8602 11.4505 61.3702 14.6205L61.4202 14.6805L61.4402 34.2405L61.0902 33.9905L61.1002 33.9805ZM58.1402 34.0905L58.2402 33.6705C56.3202 32.9705 54.3202 32.6305 52.3002 32.6705C50.8602 32.6805 49.4002 32.8105 47.9802 33.0505C47.9602 33.0505 47.9302 33.0505 47.9102 33.0505C47.6502 33.0505 47.4402 32.8005 47.4502 32.5005V13.1105H45.3702V36.1105L45.6802 35.9705C49.6102 34.1805 53.9202 33.5305 58.1402 34.1005V34.0905ZM78.9302 12.0205H76.3802V10.9105C76.3902 10.6505 76.2502 10.4205 76.0402 10.3505C74.4502 9.89046 72.8002 9.65046 71.1602 9.66046C68.5202 9.66046 64.8102 10.3105 62.0802 13.4105L61.9102 13.6005L61.7502 13.4105C59.0702 10.3105 55.3302 9.66046 52.6702 9.66046C51.0202 9.66046 49.3802 9.89046 47.7902 10.3605C47.5802 10.4305 47.4402 10.6505 47.4502 10.9105V12.0205H44.9202C44.6602 12.0205 44.4502 12.2705 44.4502 12.5705V36.9905C44.4502 37.2905 44.6602 37.5405 44.9202 37.5405C44.9902 37.5405 45.0702 37.5205 45.1402 37.4705C45.8902 37.0305 52.5702 33.3305 61.7902 35.9105H61.9502C61.9502 35.9105 62.0102 35.9105 62.0402 35.9105C67.0502 34.5005 71.3002 34.9805 73.9702 35.6305C76.5502 36.2605 78.3202 37.1905 78.7002 37.4705C78.8402 37.5605 79.0102 37.5605 79.1502 37.4705C79.3002 37.3805 79.3902 37.1905 79.3902 37.0005V12.5605C79.3902 12.2605 79.1802 12.0205 78.9202 12.0205H78.9302Z" fill="#25356F"/>
<path fill-rule="evenodd" clip-rule="evenodd" d="M46.4803 60.8913C45.9003 58.7813 44.9803 56.7813 45.0203 54.8113C45.1003 49.5713 49.5203 45.5313 55.6803 46.7613C55.9703 46.8213 56.1903 47.2013 56.4903 47.6813C53.8403 49.6313 54.4203 52.7313 54.8203 53.7313C55.1003 54.4413 57.6703 57.7313 59.6503 60.2213C60.7703 62.1713 61.4103 64.4113 60.9503 67.0713C60.9203 67.2413 60.6903 68.2713 60.4803 68.4713C60.4803 68.4713 60.4703 68.4813 60.4603 68.4913L59.5603 69.5213L57.3403 68.2613H57.4303L46.4703 60.8913H46.4803ZM57.0303 48.3813C55.9403 49.1913 54.4103 51.4013 56.0303 54.0613C56.9903 55.6313 57.8203 56.7113 58.5003 57.4113C59.3403 57.2513 60.2103 57.1513 60.4503 56.7113C61.0203 55.3713 61.4303 53.9713 61.6703 52.5413C59.7903 51.3313 59.3003 48.5113 57.0403 48.3713L57.0303 48.3813ZM56.4003 68.2313L45.8703 61.2113C39.6503 61.2113 33.2103 61.2913 26.7703 61.2413C25.8303 61.2413 24.9203 60.9113 24.1803 60.3313C23.4403 59.7513 22.9203 58.9413 22.7003 58.0413C22.4503 57.2713 22.4803 56.4313 22.7703 55.6813C23.0603 54.9213 23.5903 54.2813 24.2903 53.8613C25.1403 53.2513 26.1503 52.9113 27.1903 52.8713C28.2403 52.8313 29.2703 53.1013 30.1603 53.6413C32.1403 54.8513 33.7903 56.6213 35.6603 58.0113C36.7003 58.8713 38.0303 59.3013 39.3803 59.2313C40.7303 59.1613 42.0103 58.5913 42.9503 57.6313C43.2403 57.2713 43.1603 56.5613 43.2403 56.0213C42.6603 56.0213 41.9503 55.7713 41.5303 56.0213C40.7203 56.6813 39.6803 57.0113 38.6303 56.9313C37.5803 56.8513 36.6003 56.3713 35.9103 55.5913C34.3803 54.2113 32.7703 52.9213 31.0903 51.7213C29.4203 50.7813 27.4503 50.5013 25.5703 50.9413C23.7003 51.3813 22.0703 52.5113 21.0103 54.1013C20.2303 55.5413 20.0503 57.2313 20.5303 58.7913C21.0003 60.3513 22.0903 61.6713 23.5403 62.4413C24.5203 62.9513 24.5703 63.3713 23.9203 64.3413C23.4103 65.2713 22.6203 66.0113 21.6503 66.4613C20.6803 66.9013 19.5903 67.0213 18.5503 66.8113C17.9903 66.7613 17.4203 66.7613 16.8603 66.8113C15.1303 66.8213 14.8903 67.3013 15.4503 68.9213C16.0103 70.5513 16.5203 72.1913 17.1803 73.7713C19.1203 78.3713 17.1803 78.0413 22.8003 78.0413C24.2103 78.0513 24.8403 77.6813 24.8403 76.1813C24.8103 74.1913 24.5303 73.7313 22.8403 73.6113L20.7203 73.4713C21.0269 72.278 21.6503 71.6813 22.5903 71.6813H27.9903C29.7403 71.7513 31.4603 71.2413 32.8903 70.2313C34.3203 69.2213 35.3603 67.7713 35.8603 66.1113C36.0003 65.7313 36.5903 65.4113 36.9903 65.0913L40.1903 66.4113H40.1803C42.8103 67.2913 45.4403 68.1313 48.0503 69.0513C50.1003 69.7713 52.1303 70.7513 52.7703 72.9613C52.9403 73.7213 53.3503 74.4213 53.9403 74.9413C54.5303 75.4613 55.2703 75.7913 56.0603 75.8813C59.6603 76.6213 63.0303 78.4113 66.8603 78.1213C68.8803 77.9813 69.8703 76.4813 68.6503 74.9113C67.9203 74.2713 67.0103 73.8513 66.0503 73.7113C65.1203 73.4713 63.9603 73.8113 63.2403 73.3513C60.8803 71.7613 58.6303 70.0313 56.3803 68.2613L56.4003 68.2313ZM39.3303 66.5813C38.6303 66.3413 37.3503 65.8913 37.0003 65.7713C37.0003 66.6013 36.9903 67.2013 36.9903 67.7713C37.1303 68.5713 37.1803 69.3913 37.1603 70.2013C36.9403 71.4813 35.8503 72.9013 36.2903 73.8713C36.7303 74.8413 38.4303 75.2913 39.6403 75.8613C41.6603 76.7913 43.4403 78.2113 45.8803 78.0213C47.2603 77.9113 47.9503 77.5313 47.9603 76.0913C47.9703 74.6413 47.5803 73.7013 45.9903 73.5713H44.5803C43.6703 73.5713 43.2703 73.1713 43.6703 72.1813C44.4903 70.0513 43.8703 68.7213 41.7703 67.7713C41.0303 67.5013 40.3103 67.1013 39.3303 66.5813ZM61.6503 67.0213C61.6503 65.8113 61.7303 64.5913 61.6503 63.3913C61.5503 62.8213 61.6203 62.2313 61.8503 61.7013C62.0903 61.1713 62.4803 60.7213 62.9703 60.4013C63.8703 59.9413 64.6003 59.2213 65.0703 58.3313C65.5403 57.4413 65.7203 56.4413 65.6003 55.4513C65.6003 55.1313 65.6503 54.8113 65.7803 54.5113C65.9103 54.2113 66.1003 53.9513 66.3503 53.7313C66.5903 53.5213 66.8803 53.3613 67.2003 53.2613C67.5203 53.1613 67.8403 53.1413 68.1703 53.1913C69.7703 53.2913 69.5803 54.4813 69.5803 55.5113C69.7003 56.5913 69.6003 57.6713 69.2903 58.7113C68.9803 59.7513 68.4603 60.7113 67.7703 61.5513C66.3603 63.4113 65.1803 65.4313 63.9203 67.3913C63.8003 67.7013 63.6103 67.9713 63.3603 68.1913C63.1203 68.4113 62.8203 68.5713 62.5003 68.6613C62.2103 68.7413 61.9103 68.7613 61.6203 68.7213L61.6603 67.0113L61.6503 67.0213Z" fill="#25356F"/>
<path fill-rule="evenodd" clip-rule="evenodd" d="M112.69 9.67031H111.06V2.89031H114.44C116.71 2.89031 118.12 4.13031 118.12 6.13031C118.12 8.13031 115.25 9.67031 112.68 9.67031H112.69ZM119.77 16.3203C119.77 19.4203 117.89 21.2803 114.74 21.2803H111.06V11.5903H113.14C114.25 11.5903 119.77 11.8203 119.77 16.3303V16.3203ZM124.23 16.3203C124.23 12.9403 122.02 11.4003 120.72 10.7803C120.35 10.6003 119.97 10.4503 119.56 10.3203C119.67 10.2703 119.79 10.2103 119.9 10.1503C121.66 9.23031 122.59 7.78031 122.59 5.97031C122.59 4.76031 122.02 0.820312 114.75 0.820312H104.37V2.45031H106.23C106.49 2.45031 106.92 3.08031 106.92 3.58031V20.5903C106.92 21.0203 106.56 21.5003 106.23 21.5003H104.37V23.1303H115.2C121.86 23.1303 124.24 19.6203 124.24 16.3303L124.23 16.3203Z" fill="white"/>
<path fill-rule="evenodd" clip-rule="evenodd" d="M158.32 21.5003H155.93V2.45031H158.32V0.820312H149.22V2.45031H151.08C151.47 2.45031 151.77 2.75031 151.77 3.14031V20.8003C151.77 21.1903 151.47 21.4903 151.08 21.4903H149.22V23.1203H158.32V21.4903V21.5003Z" fill="white"/>
<path fill-rule="evenodd" clip-rule="evenodd" d="M161.85 6.07031C162.28 2.87031 163.69 2.45031 164.86 2.45031H167.1C167.36 2.45031 167.79 3.08031 167.79 3.58031V20.8003C167.79 21.1903 167.49 21.4903 167.1 21.4903H165.24V23.1203H174.34V21.4903H171.95V2.45031H174.88C176.05 2.45031 177.46 2.86031 177.89 6.07031L178.12 7.68031H179.73V0.820312H160.01V7.68031H161.62L161.85 6.06031V6.07031Z" fill="white"/>
<path fill-rule="evenodd" clip-rule="evenodd" d="M190.5 21.5003H188.11V2.45031H190.5V0.820312H181.4V2.45031H183.26C183.65 2.45031 183.95 2.75031 183.95 3.14031V20.8003C183.95 21.1903 183.65 21.4903 183.26 21.4903H181.4V23.1203H190.5V21.4903V21.5003Z" fill="white"/>
<path fill-rule="evenodd" clip-rule="evenodd" d="M194.98 22.6188C196.12 23.1188 198.05 23.7188 200.77 23.7188C206.99 23.7188 209.21 20.2088 209.21 16.9188C209.21 12.3588 205.16 10.4987 201.9 8.99875C199.4 7.84875 197.24 6.85875 197.24 5.07875C197.24 3.29875 198.59 2.28875 200.77 2.28875C203.1 2.28875 204.8 3.63875 205.44 5.98875L205.86 7.68875H207.26V2.34875L206.99 2.14875C206.51 1.79875 205.96 1.46875 205.35 1.17875C203.95 0.53875 202.41 0.21875 200.77 0.21875C196.59 0.21875 193.68 2.70875 193.68 6.26875C193.68 10.2587 197.36 11.9987 200.61 13.5387C203.32 14.8187 205.65 15.9288 205.65 17.9587C205.65 20.1987 203.74 21.6488 200.77 21.6488C197.44 21.6488 194.95 19.2488 194.46 16.9188L194.04 15.0887H192.63V21.2987L192.9 21.4988C193.5 21.9288 194.19 22.3088 194.98 22.6188Z" fill="white"/>
<path fill-rule="evenodd" clip-rule="evenodd" d="M220.42 21.5003H218.03V12.0403H227.94V20.8103C227.94 21.2003 227.64 21.5003 227.25 21.5003H225.4V23.1303H234.5V21.5003H232.11V2.45031H234.5V0.820312H225.4V2.45031H227.25C227.58 2.45031 227.94 2.93031 227.94 3.36031V10.1103H218.03V2.45031H220.42V0.820312H211.32V2.45031H213.18C213.57 2.45031 213.87 2.75031 213.87 3.14031V20.8003C213.87 21.1903 213.57 21.4903 213.18 21.4903H211.32V23.1203H220.42V21.4903V21.5003Z" fill="white"/>
<path fill-rule="evenodd" clip-rule="evenodd" d="M111.21 54.8692H108.67V39.4692L115.95 56.7992H117.73L124.86 39.5292V54.1792C124.86 54.5692 124.56 54.8692 124.17 54.8692H122.46V56.4992H131.41V54.8692H129.02V35.8292H131.41V34.1992H124.62L118.02 50.5192L111.14 34.1992H104.06V35.8292H105.92C106.31 35.8292 106.61 36.1292 106.61 36.5192V52.9392C106.61 54.8792 105.74 54.8792 105.32 54.8792H104.06V56.5092H111.21V54.8792V54.8692Z" fill="white"/>
<path fill-rule="evenodd" clip-rule="evenodd" d="M140.34 47.84L143.29 39.77L146.24 47.84H140.34ZM146.97 56.5H155.77V54.87H154.36C153.41 54.87 153.17 54.67 152.73 53.5L145.39 33.75H143.13L136.09 53.06C135.6 54.38 135.11 54.87 134.31 54.87H132.75V56.5H139.6V54.87H137.92L139.66 49.75H146.95L148.78 54.87H146.96V56.5H146.97Z" fill="white"/>
<path fill-rule="evenodd" clip-rule="evenodd" d="M172.9 35.8292H175.29V49.4992L162.76 34.1992H157.03V35.8292H158.89C159.28 35.8292 159.58 36.1292 159.58 36.5192V53.4292C159.58 54.6692 159.2 54.8692 158.29 54.8692H157.03V56.4992H164.18V54.8692H161.64V39.6992L175.78 56.9492H177.35V37.2992C177.35 36.0392 177.75 35.8292 178.64 35.8292H179.9V34.1992H172.9V35.8292Z" fill="white"/>
<path fill-rule="evenodd" clip-rule="evenodd" d="M186.3 47.84L189.25 39.77L192.2 47.84H186.3ZM178.72 56.5H185.57V54.87H183.89L185.63 49.75H192.92L194.75 54.87H192.93V56.5H201.73V54.87H200.32C199.5 54.87 199.2 54.44 198.69 53.06L191.35 33.75H189.09L182.05 53.5C181.66 54.55 181.24 54.87 180.27 54.87H178.71V56.5H178.72Z" fill="white"/>
<path fill-rule="evenodd" clip-rule="evenodd" d="M213.2 35.6716C216.33 35.6716 218.76 37.8616 219.29 39.9716L219.71 41.6716H221.33V36.5116L221.1 36.3116C220.49 35.8016 219.78 35.3416 218.99 34.9616C217.15 34.0616 215.2 33.6016 213.19 33.6016C206.78 33.6016 201.76 38.7616 201.76 45.3516C201.76 51.9416 206.78 57.1016 213.19 57.1016C216.24 57.1016 218.48 56.3016 219.83 55.6216C220.7 55.1916 221.46 54.6916 222.15 54.0916L222.38 53.8916V49.3216C222.38 48.9316 222.68 48.6316 223.07 48.6316H224.63V46.7816H216.25V48.6316H218.52V53.0316C218.23 53.3316 217.85 53.6216 217.37 53.9216C216.54 54.4216 215.14 55.0216 213.19 55.0216C209.83 55.0216 206.22 51.9916 206.22 45.3416C206.22 38.6916 209.83 35.6616 213.19 35.6616L213.2 35.6716Z" fill="white"/>
<path fill-rule="evenodd" clip-rule="evenodd" d="M238.65 36.2709C240.45 36.2709 241.36 37.0509 241.66 38.8709L241.9 40.3209H243.5V34.2109H225.57V35.8409H227.43C227.82 35.8409 228.12 36.1409 228.12 36.5309V54.1909C228.12 54.5809 227.82 54.8809 227.43 54.8809H225.57V56.5109H244.25V50.4009H242.65L242.41 51.8509C242.1 53.6709 241.2 54.4509 239.39 54.4509H232.27V45.4309H237.09V48.1309H239V40.6709H237.09V42.0809C237.09 42.9109 236.49 43.5209 235.65 43.5209H232.27V36.2909H238.64L238.65 36.2709Z" fill="white"/>
<path fill-rule="evenodd" clip-rule="evenodd" d="M253.09 54.8692H250.55V39.4692L257.83 56.7992H259.61L266.74 39.5292V54.1792C266.74 54.5692 266.44 54.8692 266.05 54.8692H264.34V56.4992H273.29V54.8692H270.9V35.8292H273.29V34.1992H266.5L259.9 50.5192L253.02 34.1992H245.94V35.8292H247.79C248.18 35.8292 248.48 36.1292 248.48 36.5192V52.9392C248.48 54.8792 247.61 54.8792 247.19 54.8792H245.94V56.5092H253.09V54.8792V54.8692Z" fill="white"/>
<path fill-rule="evenodd" clip-rule="evenodd" d="M293.64 50.3887H291.83L291.59 51.8387C291.27 53.7287 290.51 54.4387 288.8 54.4387H281.68V45.4187H286.72V48.1187H288.41V40.6587H286.71V42.0687C286.71 42.9287 285.85 43.5087 285.06 43.5087H281.68V36.2787H288.06C289.78 36.2787 290.53 36.9787 290.85 38.8787L291.09 40.3288H292.9V34.2188H274.97V35.8487H276.83C277.22 35.8487 277.52 36.1487 277.52 36.5387V54.1987C277.52 54.5887 277.22 54.8887 276.83 54.8887H274.97V56.5187H293.64V50.4087V50.3887Z" fill="white"/>
<path fill-rule="evenodd" clip-rule="evenodd" d="M311.19 35.8292H313.58V49.4992L301.05 34.1992H295.32V35.8292H297.17C297.56 35.8292 297.86 36.1292 297.86 36.5192V53.4292C297.86 54.6692 297.48 54.8692 296.57 54.8692H295.31V56.4992H302.46V54.8692H299.91V39.6992L314.05 56.9492H315.62V37.2992C315.62 36.0392 316.02 35.8292 316.91 35.8292H318.16V34.1992H311.16V35.8292H311.19Z" fill="white"/>
<path fill-rule="evenodd" clip-rule="evenodd" d="M319.56 34.2014V41.0614H321.39L321.62 39.4414C322.03 36.4414 323.03 35.8214 324.41 35.8214H326.65C327.04 35.8214 327.34 36.1214 327.34 36.5114V54.1714C327.34 54.5614 327.04 54.8614 326.65 54.8614H324.79V56.4914H333.89V54.8614H331.5V35.8214H334.43C335.81 35.8214 336.81 36.4314 337.22 39.4414L337.45 41.0514H339.27V34.1914H319.55L319.56 34.2014Z" fill="white"/>
<path fill-rule="evenodd" clip-rule="evenodd" d="M120.05 68.5519H122.59V81.0419C122.59 85.4319 120.39 87.7619 116.24 87.7619C112.85 87.7619 110.91 85.1419 110.91 80.5619V68.5519H113.3V66.9219H104.2V68.5519H106.06C106.45 68.5519 106.75 68.8519 106.75 69.2419V80.7419C106.75 86.0919 110.47 89.8219 115.79 89.8219C121.11 89.8219 124.66 86.2619 124.66 80.7419V70.4619C124.66 68.5519 125.56 68.5519 125.95 68.5519H127.36V66.9219H120.06V68.5519H120.05Z" fill="white"/>
<path fill-rule="evenodd" clip-rule="evenodd" d="M144.59 68.5519H146.98V82.2219L134.45 66.9219H128.72V68.5519H130.58C130.97 68.5519 131.27 68.8519 131.27 69.2419V86.1519C131.27 87.3919 130.89 87.5919 129.98 87.5919H128.72V89.2219H135.87V87.5919H133.33V72.4219L147.47 89.6719H149.04V70.0219C149.04 68.7619 149.44 68.5519 150.33 68.5519H151.59V66.9219H144.59V68.5519Z" fill="white"/>
<path fill-rule="evenodd" clip-rule="evenodd" d="M153.18 68.5519H155.04C155.43 68.5519 155.73 68.8519 155.73 69.2419V86.9019C155.73 87.2919 155.43 87.5919 155.04 87.5919H153.18V89.2219H162.28V87.5919H159.89V68.5519H162.28V66.9219H153.18V68.5519Z" fill="white"/>
<path fill-rule="evenodd" clip-rule="evenodd" d="M180.18 68.5519H182.35L176.98 83.1419L171.1 68.5519H172.73V66.9219H163.93V68.5519H165.34C166.28 68.5519 166.62 68.8219 167.09 69.9419L175.07 89.6719H176.87L184.06 70.0719C184.46 69.0019 185.04 68.5519 185.99 68.5519H187.85V66.9219H180.19V68.5519H180.18Z" fill="white"/>
<path fill-rule="evenodd" clip-rule="evenodd" d="M206.1 84.5497C205.78 86.4397 205.02 87.1497 203.31 87.1497H196.19V78.1297H201.01V80.8297H202.92V73.3697H201.01V74.7797C201.01 75.6097 200.41 76.2197 199.57 76.2197H196.19V68.9897H202.56C204.28 68.9897 205.03 69.6897 205.35 71.5897L205.59 73.0397H207.4V66.9297H189.47V68.5597H191.33C191.72 68.5597 192.02 68.8597 192.02 69.2497V86.9097C192.02 87.2997 191.72 87.5997 191.33 87.5997H189.47V89.2297H208.14V83.1197H206.33L206.09 84.5697L206.1 84.5497Z" fill="white"/>
<path fill-rule="evenodd" clip-rule="evenodd" d="M242.28 75.1003C239.78 73.9503 237.62 72.9603 237.62 71.1803C237.62 69.4003 238.97 68.3903 241.15 68.3903C244 68.3903 245.15 70.4103 245.6 72.0903L246.03 73.7903H247.65V68.4503L247.38 68.2503C246.9 67.9003 246.35 67.5703 245.74 67.2803C244.34 66.6403 242.8 66.3203 241.16 66.3203C236.98 66.3203 234.07 68.8103 234.07 72.3703C234.07 76.3603 237.75 78.1003 241 79.6403C243.71 80.9203 246.04 82.0303 246.04 84.0603C246.04 86.3003 244.13 87.7503 241.16 87.7503C237.81 87.7503 235.56 85.3703 235.07 83.0203L234.65 81.1903H233.02V87.4003L233.29 87.6003C233.89 88.0303 234.59 88.4103 235.37 88.7203C236.51 89.2203 238.44 89.8203 241.16 89.8203C247.38 89.8203 249.6 86.3103 249.6 83.0203C249.6 78.4603 245.55 76.6003 242.29 75.1003H242.28Z" fill="white"/>
<path fill-rule="evenodd" clip-rule="evenodd" d="M251.71 68.5519H253.56C253.95 68.5519 254.25 68.8519 254.25 69.2419V86.9019C254.25 87.2919 253.95 87.5919 253.56 87.5919H251.71V89.2219H260.81V87.5919H258.42V68.5519H260.81V66.9219H251.71V68.5519Z" fill="white"/>
<path fill-rule="evenodd" clip-rule="evenodd" d="M262.49 73.7784H264.32L264.55 72.1584C264.91 69.4584 265.74 68.9784 267.34 68.9784H269.58C269.97 68.9784 270.27 69.2784 270.27 69.6684V86.8884C270.27 87.2784 269.97 87.5784 269.58 87.5784H267.73V89.2084H276.83V87.5784H274.43V68.9684H277.36C278.96 68.9684 279.78 69.4484 280.15 72.1484L280.38 73.7584H282.21V66.8984H262.49V73.7584V73.7784Z" fill="white"/>
<path fill-rule="evenodd" clip-rule="evenodd" d="M298.43 68.5502H300.11L295.49 77.6802L290.74 68.5502H292.26V66.9202H283.46V68.5502H285.02C285.74 68.5502 286.22 68.7102 286.68 69.5402L292.44 80.6301V86.9002C292.44 87.2902 292.14 87.5901 291.75 87.5901H289.89V89.2202H298.99V87.5901H296.6V80.1702L301.91 69.6902C302.45 68.6502 302.83 68.5402 303.57 68.5402H305.28V66.9102H298.43V68.5402V68.5502Z" fill="white"/>
<path fill-rule="evenodd" clip-rule="evenodd" d="M132.71 10.8511V2.51109H135.49C138.66 2.51109 138.9 5.53109 138.9 6.46109C138.9 6.69109 138.91 6.92109 138.92 7.15109C138.99 8.66109 139.05 9.86109 135.83 10.8511H132.71ZM135.25 21.5511H132.71V12.5411H133.19C133.52 12.5411 133.66 12.6111 133.7 12.6311L139.4 20.7711L141.02 23.1711H146.29L141.47 16.6211L138.77 12.6411C142.2 12.2411 143.37 10.6911 143.37 7.11109C143.37 2.56109 141.36 0.871094 135.95 0.871094H126.01V2.50109H127.86C128.25 2.50109 128.55 2.80109 128.55 3.19109V20.6311C128.55 21.0611 128.19 21.5411 127.86 21.5411H126.01V23.1711H135.26V21.5411L135.25 21.5511Z" fill="white"/>
<path fill-rule="evenodd" clip-rule="evenodd" d="M217.62 68.5597H220.4C221.58 68.5597 222.48 68.9797 223.06 69.8097C223.54 70.4997 223.81 71.4497 223.81 72.5097C223.81 72.7497 223.82 72.9997 223.83 73.1797V73.2497C223.84 73.4597 223.85 73.6697 223.85 73.8597C223.85 74.3197 223.79 74.6597 223.67 74.9597C223.33 75.7597 222.37 76.3997 220.74 76.8997H217.62V68.5597ZM223.68 78.6997C225.09 78.5297 226.09 78.1697 226.81 77.5697C227.84 76.6997 228.28 75.3897 228.28 73.1697C228.28 70.8197 227.77 69.3397 226.63 68.3597C225.48 67.3697 223.7 66.9297 220.85 66.9297H210.92V68.5597H212.78C213.17 68.5597 213.47 68.8597 213.47 69.2497V86.6897C213.47 86.9097 213.38 87.1497 213.23 87.3397C213.1 87.5097 212.93 87.5997 212.79 87.5997H210.93V89.2297H220.18V87.5997H217.64V78.5897H218.12C218.44 78.5897 218.58 78.6497 218.63 78.6697L224.33 86.8197L225.76 88.9297L225.95 89.2197H231.22L226.4 82.6697L223.7 78.6897L223.68 78.6997Z" fill="white"/>
<path fill-rule="evenodd" clip-rule="evenodd" d="M66.82 22.6497C66.92 22.5597 67.06 22.4697 67.23 22.3697L67.61 22.1597C67.96 21.9597 68.2 21.7997 68.34 21.6597C68.59 21.4097 68.71 21.0997 68.71 20.7497C68.71 20.4197 68.59 20.1097 68.37 19.8397C68.14 19.5697 67.77 19.4297 67.28 19.4297C66.69 19.4297 66.27 19.6497 66.03 20.0697C65.9 20.3097 65.83 20.6097 65.82 20.9797V21.0897H66.55V20.9797C66.56 20.7497 66.6 20.5697 66.66 20.4397C66.77 20.2097 66.98 20.1097 67.28 20.1097C67.48 20.1097 67.64 20.1697 67.76 20.2897C67.88 20.4097 67.94 20.5597 67.94 20.7697C67.94 20.9397 67.88 21.0897 67.74 21.2297C67.65 21.3197 67.49 21.4397 67.26 21.5697L66.72 21.8797C66.34 22.0997 66.08 22.3497 65.95 22.6297C65.82 22.8997 65.75 23.2197 65.73 23.5797V23.6997H68.7V22.9997H66.55C66.61 22.8697 66.7 22.7597 66.82 22.6497Z" fill="#25356F"/>
<path fill-rule="evenodd" clip-rule="evenodd" d="M70.9702 20.4914C71.0802 20.7714 71.1302 21.1414 71.1302 21.5814C71.1302 22.1914 71.0602 22.6114 70.9202 22.8214C70.7902 23.0214 70.6102 23.1214 70.3902 23.1214C70.1102 23.1214 69.9201 22.9614 69.8001 22.6214C69.7201 22.3814 69.6702 22.0614 69.6702 21.6614C69.6702 21.1314 69.7401 20.7314 69.8601 20.4714C69.9801 20.2314 70.1602 20.1114 70.4102 20.1114C70.6902 20.1114 70.8601 20.2314 70.9601 20.4914H70.9702ZM70.3902 19.4414C69.7602 19.4414 69.3301 19.7714 69.0901 20.4314C68.9701 20.7714 68.9102 21.1814 68.9102 21.6514C68.9102 22.2614 69.0102 22.7514 69.2202 23.1214C69.4702 23.5814 69.8702 23.8114 70.3902 23.8114C70.9702 23.8114 71.3902 23.5314 71.6402 22.9714C71.8102 22.6014 71.8902 22.1214 71.8902 21.5614C71.8902 20.9714 71.8001 20.4914 71.6101 20.1414C71.3601 19.6714 70.9502 19.4414 70.3902 19.4414Z" fill="#25356F"/>
</svg>
